# xmcd CD database file
#
# Track frame offsets:
#	150
#	14332
#	26710
#	40772
#	54489
#	67831
#	78779
#	91953
#	105702
#	118887
#	130434
#	141136
#	151806
#	165141
#	177358
#	189824
#	203388
#	216982
#	230580
#	244018
#	258269
#
# Disc length: 3631 seconds
#
# Revision: 0
# Processed by: cddbd v1.5.2PL0 Copyright (c) Steve Scherf et al.
# Submitted via: CDex 1.70beta2
#
DISCID=0c0e2d15
DTITLE=Frank Teschmacher - Giants of Jazz [CD1]
DYEAR=1900
DGENRE=Jazz
TTITLE0=Sugar: McKenzie and Condon’s Chicagoans
TTITLE1=China Boy: McKenzie and Condon’s Chicagoans
TTITLE2=Nobody’s Sweetheart: McKenzie and Condon’s Chicagoans
TTITLE3=Liza: McKenzie and Condon’s Chicagoans 
TTITLE4=Bull Frog Blues: Charles Pierce and His Orchestra
TTITLE5=China Boy: Charles Pierce and His Orchestra
TTITLE6=There’ll Be Some Changes Made: Chicago Rhythm Kings
TTITLE7=I’ve Found a New Baby: Chicago Rhythm Kings
TTITLE8=Friar’s Point Shuffle: Jungle Kings
TTITLE9=Darktown Strutters’ Ball: Jungle Kings 
TTITLE10=Jazz Me Blues: Charles Pierce and His Orchestra
TTITLE11=Sister Kate: Charles Pierce and His Orchestra
TTITLE12=Nobody’s Sweetheart: Charles Pierce and His Orchestra
TTITLE13=Jazz Me Blues: Frank Teschmaker’s Chicagoans 
TTITLE14=Baby, Won’t You Please Come Home: Chicago Rhythm Kings 
TTITLE15=Windy City Stomp (One Step to Heaven): Miff Mole and His Little Molers 
TTITLE16=Shim-Me-Sha-Wobble: Miff Mole and His Little Molers
TTITLE17=Oh Baby: Eddie Condon’s Quartet
TTITLE18=Indiana: Eddie Condon’s Quartet
TTITLE19=’Round Evening: Dorsey Brothers and Their Orchestra
TTITLE20=Out of the Dawn: Dorsey Brothers and Their Orchestra 
EXTD=
EXTT0=
EXTT1=
EXTT2=
EXTT3=
EXTT4=
EXTT5=
EXTT6=
EXTT7=
EXTT8=
EXTT9=
EXTT10=
EXTT11=
EXTT12=
EXTT13=
EXTT14=
EXTT15=
EXTT16=
EXTT17=
EXTT18=
EXTT19=
EXTT20=
PLAYORDER=
